<svg xmlns="http://www.w3.org/2000/svg" xmlns:xlink="http://www.w3.org/1999/xlink" fill="none" version="1.1" width="100" height="100" viewBox="0 0 100 100"><defs><clipPath id="master_svg0_10_136"><rect x="0" y="0" width="100" height="100" rx="0"/></clipPath></defs><g clip-path="url(#master_svg0_10_136)"><g><path d="M31.7499986,59.874984999999995C31.7499986,60.891243,32.6087489,61.749989,33.6250019,61.749989C34.6605339,61.749989,35.4999981,62.589455,35.4999981,63.624985C35.4999981,64.660515,34.6605339,65.49998099999999,33.6249976,65.49998099999999C30.5312498,65.49998099999999,28,62.968735,28,59.874984999999995L28,33.6249976C28,30.5312493,30.5312498,28,33.6249976,28L59.87499,28C62.968746,28,65.499989,30.5312493,65.499989,33.6249976C65.499989,34.6563897,64.66387900000001,35.4924984,63.632488,35.4924984L63.617489,35.4924984C62.586098,35.4924984,61.749989,34.6563897,61.749989,33.6249976C61.749989,32.6087494,60.891235,31.7499981,59.87499,31.7499981L33.6249976,31.7499981C32.6087489,31.7499981,31.7499986,32.6087494,31.7499986,33.6249976L31.7499986,59.874984999999995ZM67.37500399999999,35.4999795L41.125006,35.4999795C38.031257,35.4999795,35.5000067,38.031228999999996,35.5000067,41.124977L35.5000067,67.37495799999999C35.5000067,70.468716,38.031257,72.999962,41.125006,72.999962L67.37500399999999,72.999962C70.46875399999999,72.999962,73,70.468716,73,67.37495799999999L73,41.124975C73,38.031228999999996,70.46875399999999,35.4999795,67.37500399999999,35.4999795ZM67.37500399999999,39.249976000000004C68.391251,39.249976000000004,69.25,40.108727,69.25,41.124975L69.25,67.37495799999999C69.25,68.391216,68.391258,69.249962,67.37500399999999,69.249962L41.125006,69.249962C40.108757,69.249962,39.250007,68.391216,39.250007,67.37495799999999L39.250007,41.124975C39.250007,40.108727,40.108757,39.249976000000004,41.125006,39.249976000000004L67.37500399999999,39.249976000000004ZM52.375,56.124971L52.375,61.749989C52.375,62.781239,53.218751999999995,63.624985,54.250001999999995,63.624985C55.281256,63.624985,56.125004000000004,62.781239,56.125004000000004,61.749989L56.125004000000004,56.124971L61.749989,56.124971C62.781242,56.124971,63.624992,55.281219,63.624992,54.249973C63.624992,53.218723,62.781242,52.374971,61.749989,52.374971L56.125004000000004,52.374971L56.125004000000004,46.74999C56.125004000000004,45.718744,55.281256,44.874994,54.250001999999995,44.874994C53.218751999999995,44.874994,52.375,45.718744,52.375,46.74999L52.375,52.374971L46.749994,52.374971C45.718744,52.374971,44.874994,53.218723,44.874994,54.249973C44.874994,55.281219,45.718744,56.124971,46.749994,56.124971L52.375,56.124971Z" fill-rule="evenodd" fill="#6472A4" fill-opacity="1" style="mix-blend-mode:passthrough"/><path d="M34.9375072,65.684639Q34.3595042,66.06248099999999,33.6249976,66.06248099999999Q31.0716898,66.06248099999999,29.254596,64.24538799999999Q27.43750006,62.428295,27.43750006,59.874987000000004L27.43750042,33.6249976Q27.43750048,31.0716913,29.2545961,29.2545958Q31.0716915,27.43750006,33.6249976,27.43750006L59.874992,27.4374997Q62.428303,27.43750006,64.24539899999999,29.254595899999998Q66.06249199999999,31.0716898,66.06249199999999,33.6249976Q66.06249199999999,34.359791799999996,65.683186,34.9374781L67.37500399999999,34.9374781Q69.92831000000001,34.9374795,71.745407,36.7545748Q73.56250399999999,38.571671,73.56250399999999,41.124976000000004L73.56250399999999,67.37495799999999Q73.56250399999999,69.92827199999999,71.745407,71.745369Q69.928314,73.562466,67.37500399999999,73.562466L41.125006,73.562466Q38.571698,73.562466,36.7546034,71.745369Q34.9375072,69.92827199999999,34.9375072,67.37495799999999L34.9375072,65.684639ZM61.566795,34.9374785Q61.187489,34.3597927,61.187489,33.6249976Q61.187489,32.3124981,59.874992,32.3124981L33.6249981,32.3124981Q32.3124986,32.3124981,32.3124986,33.6249976L32.3124986,59.874987000000004Q32.3124986,61.187489,33.6250019,61.187489Q34.3595037,61.187489,34.9375067,61.565331L34.9375057,41.124977Q34.9375067,38.571671,36.7546034,36.7545748Q38.571699,34.93748,41.125006,34.93748L61.566795,34.9374785ZM33.6250019,62.312489Q34.9374986,62.312489,34.9374986,63.624985Q34.9374986,64.93748099999999,33.6249976,64.93748099999999Q31.5376804,64.93748099999999,30.0500908,63.449894Q28.56249994,61.962303,28.56249994,59.874987000000004L28.5625003,33.6249976Q28.5625003,31.5376818,30.0500913,30.0500908Q31.5376818,28.56249994,33.6249976,28.56249994L59.874992,28.56249958Q61.962315,28.5624997,63.449902,30.0500908Q64.93749199999999,31.5376804,64.93749199999999,33.6249976Q64.93749199999999,34.9299984,63.632492,34.9299984L63.617489,34.9299984Q62.312489,34.9299984,62.312489,33.6249976Q62.312489,32.6298156,61.591331,31.9086573Q60.870174,31.1874983,59.874992,31.1874983L33.6249976,31.1874979Q32.6298165,31.1874983,31.9086573,31.9086578Q31.1874986,32.6298165,31.1874986,33.6249976L31.1874986,59.874987000000004Q31.1874986,60.870174,31.9086587,61.591335Q32.6298156,62.312489,33.6250019,62.312489ZM70.94990899999999,37.5500698Q72.43750399999999,39.037663,72.43750399999999,41.124976000000004L72.43750399999999,67.37495799999999Q72.43750399999999,69.46227999999999,70.94990899999999,70.94987499999999Q69.46231800000001,72.437466,67.37500399999999,72.437466L41.125006,72.437466Q39.037689,72.437466,37.550098399999996,70.94987499999999Q36.0625076,69.46227999999999,36.0625076,67.37495799999999L36.0625057,41.124977Q36.0625067,39.037662,37.5500975,37.5500708Q39.037689,36.06248,41.125006,36.06248L67.37500399999999,36.0624781Q69.462322,36.062478999999996,70.94990899999999,37.5500698ZM67.37500399999999,38.687477L41.125006,38.687477Q40.129824,38.687476000000004,39.408666,39.408635000000004Q38.687507,40.129793,38.687507,41.124976000000004L38.68751,67.37495799999999Q38.687508,68.370148,39.408667,69.091305Q40.129825,69.812462,41.125006,69.812462L67.37500399999999,69.812462Q68.370193,69.812462,69.091347,69.091305Q69.81250399999999,68.370148,69.81250399999999,67.37495799999999L69.81250399999999,41.124976000000004Q69.81250399999999,40.129793,69.091343,39.408636Q68.37018599999999,38.687477,67.37500399999999,38.687477ZM39.812507,41.124976000000004Q39.812507,39.812476000000004,41.125008,39.812475L67.37500399999999,39.812477Q68.68750399999999,39.812477,68.68750399999999,41.124976000000004L68.68750399999999,67.37495799999999Q68.68750399999999,68.687462,67.37500399999999,68.687462L41.125006,68.687462Q40.595816,68.687462,40.204162,68.295807Q39.812509,67.904156,39.81251,67.37495799999999L39.812507,41.124976000000004ZM52.528036,63.471954Q53.243572,64.18748500000001,54.250004000000004,64.18748500000001Q55.256437,64.18748500000001,55.971973,63.471954Q56.687506,62.756424,56.687506,61.749989L56.687506,56.687471L61.749989,56.687471Q62.756424,56.687471,63.471962,55.971939Q64.18749199999999,55.256409000000005,64.18749199999999,54.249975Q64.18749199999999,53.243542000000005,63.471962,52.528008Q62.756424,51.812473,61.749989,51.812473L56.687506,51.812473L56.687506,46.74999Q56.687506,45.743559000000005,55.971973,45.028028Q55.256437,44.312494,54.250004000000004,44.312494Q53.243572,44.312494,52.528036,45.028028Q51.812501999999995,45.743561,51.812501999999995,46.74999L51.812501999999995,51.812473L46.749995999999996,51.812473Q45.743563,51.812473,45.028028,52.528008Q44.312494,53.243542000000005,44.312494,54.249975Q44.312494,55.256405,45.028028,55.971939Q45.743561,56.687471,46.749995999999996,56.687471L51.812501999999995,56.687471L51.812501999999995,61.749989Q51.812501999999995,62.75642,52.528036,63.471954ZM52.9375,55.562471L55.562506,55.562471L55.562506,52.937471L52.9375,52.937471L52.9375,55.562471ZM52.9375,56.687471L55.562506,56.687471L55.562506,61.749989Q55.562506,63.062485,54.250004000000004,63.062485Q52.9375,63.062485,52.9375,61.749989L52.9375,56.687471ZM51.812501999999995,52.937471L51.812501999999995,55.562471L46.749995999999996,55.562471Q45.437494,55.562471,45.437494,54.249975Q45.437494,52.937471,46.749995999999996,52.937471L51.812501999999995,52.937471ZM52.9375,51.812473L55.562506,51.812473L55.562506,46.74999Q55.562506,45.437494,54.250004000000004,45.437494Q52.9375,45.437494,52.9375,46.74999L52.9375,51.812473ZM56.687506,52.937471L56.687506,55.562471L61.749989,55.562471Q63.062496,55.562471,63.062496,54.249975Q63.062496,52.937471,61.749989,52.937471L56.687506,52.937471Z" fill-rule="evenodd" fill="#6472A4" fill-opacity="1"/></g></g></svg>