<svg xmlns="http://www.w3.org/2000/svg" xmlns:xlink="http://www.w3.org/1999/xlink" fill="none" version="1.1" width="120" height="100" viewBox="0 0 120 100"><g transform="matrix(-1,0,0,1,240,0)"><path d="M214.511765,10.163445L217.391907,3.8384736C218.090935,2.3033612,220.25948,2.2697754,221.00571,3.7825046L224.18105,10.219414C224.51791,10.902265,225.21328,11.33461,225.97469,11.33461L238.10779,11.33461C238.91122000000001,11.33461,239.38662,12.234166,238.934,12.897972L232.52451000000002,22.29793C232.15199,22.844254,231.53352,23.171143,230.87228,23.171206L201.08543400000002,23.173998C197.771942,23.174309,195.08599900000002,25.86051,195.08599900000002,29.173998L195.08599900000002,66.101067C195.08599900000002,68.310204,196.876869,70.101067,199.086006,70.101067L229.61288000000002,70.101036C230.71744999999999,70.101036,231.61288000000002,70.996468,231.61288000000002,72.101036L231.61288000000002,79.972832C231.61288000000002,80.839012,231.05531000000002,81.606743,230.23162000000002,81.87471L225.27280000000002,83.487968C224.34055,83.79126,223.76556,84.725586,223.91489,85.694496L225.45123,95.66288C225.63798,96.874565,224.70056,97.967529,223.47457,97.967529L219.434753,97.967529C218.839249,97.967529,218.274719,97.702156,217.89476000000002,97.243622L213.677368,92.15406C213.452042,91.882133,213.302727,91.555389,213.244621,91.207054L211.891602,83.09626C211.730751,82.132019,210.896431,81.425346,209.918861,81.425346L188.559128,81.425346C187.45455900000002,81.425346,186.559128,82.320778,186.559128,83.425346L186.559128,91.979111C186.559128,92.47496,186.374931,92.953133,186.042282,93.320847L180.741577,99.18026C180.344578,99.619102,179.655422,99.619102,179.258423,99.18026L173.95771,93.320847C173.62506100000002,92.953133,173.440865,92.47496,173.440865,91.979111L173.440865,83.425346C173.440865,82.320778,172.545433,81.425346,171.440865,81.425346L150.081087,81.425346C149.103516,81.425346,148.269194,82.132019,148.10834499999999,83.096268L146.754955,91.209541C146.697111,91.556313,146.548882,91.881706,146.325209,92.152931L142.080021,97.300652C141.700092,97.761353,141.13418000000001,98.028183,140.537027,98.028183L136.523888,98.028183C135.298426,98.028183,134.361151,96.936104,134.547029,95.724823L136.086376,85.693558C136.235001,84.725037,135.660048,83.791451,134.728258,83.488312L129.7683754,81.87471C128.9446898,81.606743,128.3871164,80.839012,128.3871164,79.972832L128.3871164,72.101036C128.3871164,70.996468,129.282548,70.101036,130.387118,70.101036L160.918571,70.101067C163.125923,70.101067,164.91604999999998,68.313004,164.918575,66.105652L164.960838,29.181423C164.964634,25.865038,162.277229,23.174559,158.960842,23.174557L129.2217703,23.17454C128.564477,23.17454,127.9491439,22.851578,127.5757732,22.310627L121.0822816,12.902654C120.62442958,12.239303,121.0992641,11.33461,121.90528019999999,11.33461L134.025305,11.33461C134.786722,11.33461,135.482087,10.902265,135.818939,10.219414L138.994282,3.782506C139.740515,2.2697766,141.90906,2.3033624,142.608089,3.8384757L145.488228,10.163445C145.813047,10.876769,146.524605,11.33461,147.308403,11.33461L164.129028,11.33461C170.756447,11.33461,176.129032,16.707193,176.129032,23.334612L176.129032,68.101036C176.129032,69.205605,177.024464,70.101036,178.129032,70.101036L181.87096400000001,70.101036C182.97553299999998,70.101036,183.87096400000001,69.205605,183.87096400000001,68.101036L183.87096400000001,23.33461C183.87096400000001,16.707193,189.24354599999998,11.33461,195.87096400000001,11.33461L212.691589,11.33461C213.475388,11.33461,214.18694299999999,10.876769,214.511765,10.163445M201.967773,59.839966L201.967773,35.425293C201.967773,33.216152,203.758636,31.425293,205.967773,31.425293L228.29034000000001,31.425293C230.49948,31.425293,232.29034000000001,33.216152,232.29034000000001,35.425293L232.29034000000001,59.940918C232.29034000000001,61.045486,231.39490999999998,61.940918,230.29034000000001,61.940918L227.40863000000002,61.940918C226.30406,61.940918,225.40863000000002,61.045486,225.40863000000002,59.940918L225.40863000000002,41.139771C225.40863000000002,40.035202,224.51319999999998,39.139771,223.40863000000002,39.139771L210.849487,39.139771C209.74491899999998,39.139771,208.849487,40.035202,208.849487,41.139771L208.849487,53.156895C208.849487,54.276497,209.76850100000001,55.178028,210.88789400000002,55.156528L212.15669300000002,55.132156C213.246094,55.111233,214.118286,54.222126,214.118286,53.132526L214.118286,47.368408C214.118286,46.26384,215.01371799999998,45.368408,216.118286,45.368408L218.139771,45.368408C219.244339,45.368408,220.13977,46.26384,220.13977,47.368408L220.13977,59.839966C220.13977,60.944534,219.244339,61.839966,218.139771,61.839966L203.967773,61.839966C202.863205,61.839966,201.967773,60.944534,201.967773,59.839966M127.70965580000001,59.839966L127.70965580000001,35.425293C127.70965580000001,33.216152,129.5005169,31.425293,131.709656,31.425293L154.032227,31.425293C156.241367,31.425293,158.032227,33.216152,158.032227,35.425293L158.032227,59.839966C158.032227,60.944534,157.136795,61.839966,156.032227,61.839966L141.860229,61.839966C140.755659,61.839966,139.860229,60.944534,139.860229,59.839966L139.860229,47.368408C139.860229,46.26384,140.755659,45.368408,141.860229,45.368408L143.881714,45.368408C144.986284,45.368408,145.881714,46.26384,145.881714,47.368408L145.881714,53.094482C145.881714,54.199051,146.777143,55.094482,147.881714,55.094482L149.150513,55.094482C150.255083,55.094482,151.150513,54.199051,151.150513,53.094482L151.150513,41.139771C151.150513,40.035202,150.255083,39.139771,149.150513,39.139771L136.59137,39.139771C135.4868,39.139771,134.59137,40.035202,134.59137,41.139771L134.59137,59.839966C134.59137,60.944534,133.695939,61.839966,132.59137,61.839966L129.7096558,61.839966C128.6050863,61.839966,127.70965580000001,60.944534,127.70965580000001,59.839966" fill-rule="evenodd" fill="#8DA8FF" fill-opacity="1" style="mix-blend-mode:passthrough"/></g></svg>