<svg xmlns="http://www.w3.org/2000/svg" xmlns:xlink="http://www.w3.org/1999/xlink" fill="none" version="1.1" width="100" height="100" viewBox="0 0 100 100"><defs><clipPath id="master_svg0_1_220"><rect x="0" y="0" width="100" height="100" rx="0"/></clipPath></defs><g clip-path="url(#master_svg0_1_220)"><g><path d="M29.1875,62.442844L29.1875,36.9635224Q29.1875,35.256774899999996,30.1901569,34.36275923Q31.1928117,33.46875,32.9801564,33.46875L43.747811999999996,33.46875Q46.625,33.550025225,46.625,36.0695078Q46.625,37.126068599999996,45.862082,37.7559566Q45.099219,38.3857875,43.747811999999996,38.3857875L34.6367188,38.3857875L34.6367188,46.797638L42.483595,46.797638Q45.622344999999996,46.838307,45.622344999999996,49.215544Q45.622344999999996,51.592781,42.483595,51.674063000000004L34.6367188,51.674063000000004L34.6367188,62.402232999999995Q34.6367188,64.0683,33.939219,64.840445Q33.3289061,65.53125,31.8467193,65.53125Q29.1875,65.53125,29.1875,62.442844ZM66.069504,64.254124L61.173500000000004,58.858269L56.162752,64.44569200000001Q55.244751,65.53125,53.753001999999995,65.53125Q51.6875,65.53125,51.6875,63.743275Q51.6875,62.881215999999995,52.452499,62.019155999999995L58.228251,55.537693000000004L53.293999,50.01413Q52.452499,49.12014,52.452499,48.194226Q52.452499,46.40625,54.823999,46.40625Q55.894999999999996,46.40625,56.8895,47.396021L61.173500000000004,52.217171L65.45750000000001,47.427949999999996Q66.41375,46.470105000000004,67.484749,46.42224Q68.555748,46.374323000000004,69.263374,46.837306Q69.971001,47.300238,69.971001,48.178288Q69.971001,49.056284,69.091251,49.950272L64.118748,55.537693000000004L70.009251,62.051085Q70.8125,62.945074000000005,70.8125,63.7752Q70.8125,64.605335,70.104874,65.116184Q69.397247,65.627033,68.364502,65.49932100000001Q67.02574899999999,65.40353999999999,66.069504,64.254124Z" fill="#6B41F5" fill-opacity="1" style="mix-blend-mode:passthrough"/><path d="M27.7812501,62.442842Q27.7812501,66.9375,31.8467193,66.9375Q33.962966,66.9375,34.9827471,65.78309200000001Q36.0429688,64.609413,36.0429688,62.402231L36.0429688,53.080313000000004L42.5018,53.080313000000004L42.519999999999996,53.079840000000004Q47.028594999999996,52.963083,47.028594999999996,49.215544Q47.028594999999996,45.450161,42.483595,45.391388L36.0429688,45.391388L36.0429688,39.792037L43.747811,39.792037Q45.604719,39.792037,46.757401,38.8403649Q48.03125,37.7886376,48.03125,36.0695078Q48.03125,32.1829383,43.78752,32.063060899999996L43.76767,32.0625001L32.9801562,32.0625001Q30.65692,32.0625001,29.254279509,33.31315351Q27.7812501,34.6265751,27.7812501,36.9635224L27.7812501,62.442842ZM32.8956909,63.897795Q32.6948462,64.124998,31.8467193,64.124998Q30.5937499,64.124998,30.5937499,62.442842L30.5937499,36.9635224Q30.5937499,35.8869746,31.1260343,35.4123651Q31.7287033,34.8749999,32.9801562,34.8749999L43.726442,34.8749999Q45.21875,34.9241284,45.21875,36.0695078Q45.21875,36.4634993,44.966762,36.6715479Q44.593719,36.9795375,43.747811,36.9795375L33.2304688,36.9795375L33.2304688,48.203888L42.483595,48.203888Q44.216094999999996,48.226455,44.216094999999996,49.215544Q44.216094999999996,50.21755,42.464452,50.267813000000004L33.2304688,50.267813000000004L33.2304688,62.402231Q33.2304688,63.527187,32.8956909,63.897795ZM68.227806,66.899246Q69.78580500000001,67.080933,70.92799,66.256363Q72.21875,65.324543,72.21875,63.7752Q72.21875,62.406113000000005,71.052238,61.107839999999996L66.00795,55.530146L70.119732,50.909883Q71.377251,49.617271,71.377251,48.178288Q71.377251,46.539767,70.033298,45.66055Q68.94607500000001,44.949203,67.421963,45.017392Q65.804806,45.089665,64.46230299999999,46.434412L64.435078,46.461681999999996L61.176985,50.104004L57.91206,46.429705L57.881496,46.399285Q56.475527,45,54.823999,45Q51.046249,45,51.046249,48.194227Q51.046249,49.669771,52.256691000000004,50.963774L56.343643,55.538841000000005L51.400681,61.085762Q50.28125,62.347225,50.28125,63.743275Q50.28125,66.9375,53.753001999999995,66.9375Q55.88579,66.9375,57.222231,65.370565L61.179619,60.957730999999995L65.009003,65.178072Q66.330044,66.74948499999999,68.227806,66.899246ZM68.50106,64.099245L68.464855,64.096657Q67.72366,64.043627,67.150555,63.354752000000005L67.13123300000001,63.331533L61.167379,56.758804L55.102175,63.522037999999995L55.088972,63.537653Q54.592285000000004,64.124998,53.753001999999995,64.124998Q53.09375,64.124998,53.09375,63.743275Q53.09375,63.415203000000005,53.504316,62.952545L60.11286,55.536543L54.330529999999996,49.063617L54.317972,49.050275Q53.858747,48.562407,53.858747,48.194227Q53.858747,47.8125,54.823999,47.8125Q55.302532,47.8125,55.869167000000004,48.364845L61.170012,54.330336L66.477814,48.396578Q67.03426,47.850027,67.54753099999999,47.827087Q68.165424,47.799443,68.493446,48.014061999999996Q68.564751,48.060708,68.564751,48.178288Q68.564751,48.480399,68.088932,48.963915L68.064201,48.989047L62.229542,55.54524L68.96625900000001,62.994329Q69.40625,63.484034,69.40625,63.7752Q69.40625,63.886127,69.281757,63.976Q69.021828,64.163647,68.537086,64.103703L68.50106,64.099245Z" fill-rule="evenodd" fill="#6B41F5" fill-opacity="1" style="mix-blend-mode:passthrough"/></g></g></svg>