<svg xmlns="http://www.w3.org/2000/svg" xmlns:xlink="http://www.w3.org/1999/xlink" fill="none" version="1.1" width="100" height="100" viewBox="0 0 100 100"><defs><clipPath id="master_svg0_6_0584"><rect x="0" y="0" width="100" height="100" rx="0"/></clipPath></defs><g clip-path="url(#master_svg0_6_0584)"><g><path d="M64.464001,70.639999Q60.048,70.639999,57.456001,68.208Q54.864002,65.77600100000001,54.864002,60.400002L54.864002,42.223999L44.304001,42.223999L44.304001,70L34.7680006,70L34.7680006,42.223999L27.4720001,42.223999L27.4720001,35.056L71.760002,35.056L71.760002,42.223999L64.400002,42.223999L64.400002,60.015999Q64.400002,61.615997,65.264004,62.383999Q66.12800200000001,63.152,67.344002,63.152Q68.43200300000001,63.152,69.456001,62.832001Q70.48000300000001,62.512001,71.376003,62.063999L71.376003,68.91199900000001Q70.288002,69.551998,68.368004,70.096001Q66.448002,70.639999,64.464001,70.639999Z" fill="#F2B190" fill-opacity="1"/></g></g></svg>