<svg xmlns="http://www.w3.org/2000/svg" xmlns:xlink="http://www.w3.org/1999/xlink" fill="none" version="1.1" width="100" height="100" viewBox="0 0 100 100"><defs><clipPath id="master_svg0_1_216"><rect x="0" y="0" width="100" height="100" rx="0"/></clipPath></defs><g clip-path="url(#master_svg0_1_216)"><g><path d="M38.81826866015625,25.39533853717125C40.68295466015625,25.39704551173125,42.35117766015625,26.55474090703125,43.00522766015625,28.30095860703125C43.65927666015625,30.04717490703125,43.162072660156255,32.01593590703125,41.757331660156254,33.24221370703125L44.942489660156255,39.61955670703125C46.18969166015625,39.08866970703125,47.531532660156245,38.81599570703125,48.88701966015625,38.81799370703125C51.69600466015625,38.81799370703125,54.23780466015625,39.97111870703125,56.06240866015625,41.82736770703125L61.93350266015625,37.422289707031254C59.71321466015625,33.12016870703125,62.63701666015625,27.95351460703125,67.46824266015625,27.64183620703125C72.29947666015624,27.33015750703125,75.86291166015624,32.07830090703125,74.21381766015625,36.63004670703125C72.56471666015625,41.18179370703125,66.78691866015626,42.54561070703125,63.27647066015625,39.21174270703125L57.44756366015625,43.58517870703125C58.40381666015625,45.12502270703125,58.95225566015625,46.94260070703125,58.95225566015625,48.88674170703125C58.95225566015625,50.32111770703125,58.65342666015625,51.68869170703125,58.10850566015625,52.92619670703125L64.72490666015625,56.48752570703125C67.27397166015625,53.436595707031245,72.10339366015626,53.94689170703125,73.95853466015626,57.46318470703125C75.81367866015626,60.97947670703125,73.50856766015625,65.25384570703125,69.55127766015625,65.63555870703125C65.59399066015625,66.01728470703125,62.51436566015625,62.26232870703125,63.66319266015625,58.45627570703125L56.98702066015625,54.86682470703125C54.594940660156254,58.11600470703125,50.49227166015625,59.62059070703125,46.566707660156254,58.68830870703125L45.874130660156254,61.70822870703125C50.34419466015625,63.56625370703125,51.43919366015625,69.40026870703124,47.947105660156254,72.75273170703124C44.455013660156254,76.10519370703125,38.67050866015625,74.77317070703126,36.99633566015625,70.23104870703125C35.322166460156254,65.68893070703125,38.85843766015625,60.92137870703125,43.69092966015625,61.20549770703125L44.44678866015625,57.92893570703125C41.41297566015625,56.43710370703125,39.32954166015625,53.523202707031245,38.89913166015625,50.16994870703125L33.64678576015625,50.16994870703125C32.08058406015625,52.63365570703125,28.61200856015625,52.960338707031255,26.61335036015625,50.832381707031246C24.61469161015625,48.70442570703125,25.15787728015625,45.26310770703125,27.71479986015625,43.85421370703125C30.271721860156248,42.445319707031246,33.47104266015625,43.82447470703125,34.20225426015625,46.650810707031255L39.07139466015625,46.650810707031255C39.61570566015625,44.26400370703125,41.01037266015625,42.15700170703125,42.99483266015625,40.72346370703125L39.75694166015625,34.24416730703125C37.15467966015625,34.80928610703125,34.637662860156254,32.99087000703125,34.35676196015625,30.34281060703125C34.07585906015625,27.694750807031248,36.15536166015625,25.38874093163125,38.81826866015625,25.39533853717125Z" fill="#82CBFA" fill-opacity="1" style="mix-blend-mode:passthrough"/></g></g></svg>