<svg xmlns="http://www.w3.org/2000/svg" xmlns:xlink="http://www.w3.org/1999/xlink" fill="none" version="1.1" width="132.5" height="47" viewBox="0 0 132.5 47"><g><path d="M19.943998,33.012001L20.879999,26.352001L14.112,26.352001L14.544,23.364L15.839999,20.700001L14.363999,20.700001L14.867999,17.172001L17.567999,17.172001L18.179998,15.948L14.903999,15.948L15.372,12.636002L19.835999,12.636002L20.411999,11.448002L19.547998,10.476002L26.243999,10.476002L25.235998,12.636002L32.399998,12.636002L31.931999,15.948L23.688,15.948L23.147999,17.172001L27.791998,17.172001L26.963999,23.112L31.319998,23.112L30.851999,26.352001L26.495998,26.352001L25.452,33.875999Q25.307999,34.919998,24.48,35.622002Q23.651999,36.324001,22.643999,36.324001L16.811998,36.324001L19.943998,33.012001ZM9.7919998,23.616001L11.627999,36.251999L7.8839998,36.251999L7.2719998,30.132L4.7879996,36.251999L0.68399996,36.251999L5.9399996,22.931999L7.4879999,11.844002L6.8399997,10.404001L11.664,10.404001L9.7919998,23.616001ZM19.872,27.540001L16.775999,35.604L12.455999,35.604L15.551999,27.540001L19.872,27.540001ZM31.427999,27.540001L30.959999,35.604L26.711998,35.604L27.323999,27.540001L31.427999,27.540001ZM10.296,23.940001L12.167999,12.996L14.651999,12.996L12.743999,23.940001L10.296,23.940001ZM4.1759996,12.996L6.5159998,12.996L5.2559996,23.940001L2.8439999,23.940001L4.1759996,12.996ZM21.528,20.700001L20.411999,23.112L22.032,23.112L22.355999,20.700001L21.528,20.700001ZM54.143997,33.155998L55.223999,25.344002L43.919998,25.344002L41.507999,36.216L34.667999,36.216L37.043999,25.344002L35.459999,25.344002L35.927998,21.924L37.799999,21.924L39.815998,12.708L38.843998,11.160002L64.080002,11.160002L62.567997,21.924L64.655998,21.924L64.187996,25.344002L62.063995,25.344002L60.875999,33.984001Q60.731998,35.028,60.119995,35.622002Q59.507996,36.216,58.787998,36.216L51.947998,36.216L54.143997,33.155998ZM44.675999,21.924L55.727997,21.924L56.771996,14.436001L46.332001,14.436001L44.675999,21.924ZM53.711998,15.516001L54.323997,20.592001L48.599998,20.592001L47.987999,15.516001L53.711998,15.516001ZM96.299995,26.208L95.363998,32.723999L96.839996,32.723999L96.444,35.639999L66.419998,35.639999L66.815994,32.723999L68.112,32.723999L69.047997,26.208L96.299995,26.208ZM75.455994,14.904001L69.984001,14.904001L70.416,11.736002L75.851997,11.736002L74.699997,10.404001L82.223999,10.404001L82.043999,11.736002L87.479996,11.736002L86.327995,10.404001L93.851997,10.404001L93.671997,11.736002L99.143997,11.736002L98.711998,14.904001L93.203995,14.904001L93.059998,16.128L86.903999,16.128L87.084,14.904001L81.575996,14.904001L81.431999,16.128L75.276001,16.128L75.455994,14.904001ZM90.287994,18.252001L97.451996,18.252001L97.056,21.060001L93.995995,21.060001L95.795998,25.236L90.323997,25.236L88.883995,21.960001L87.659996,25.200001L82.187996,25.200001L85.391998,16.884001L90.827995,16.884001L90.287994,18.252001ZM82.115997,16.884001L80.891998,25.596001L75.276001,25.596001L76.5,16.884001L82.115997,16.884001ZM75.276001,17.640001L74.267998,24.875999L69.264,24.875999L70.271996,17.640001L75.276001,17.640001ZM73.584,32.723999L75.995995,32.723999L76.427994,29.448L74.051994,29.448L73.584,32.723999ZM80.639999,32.723999L82.944,32.723999L83.375999,29.448L81.071999,29.448L80.639999,32.723999ZM88.164001,29.448L87.731995,32.723999L89.963997,32.723999L90.431999,29.448L88.164001,29.448ZM131.328,11.088001L127.872,35.712002L100.512,35.712002L103.788,12.42L102.636,11.088001L131.328,11.088001ZM122.868,32.292L125.388,14.508001L108.972,14.508001L106.452,32.292L122.868,32.292ZM117.18,24.084L115.92,23.292L114.444,24.084L108.612,24.084L108.972,21.708L112.104,21.708L112.824,21.348L110.7,19.980001L108.864,19.980001L110.592,15.192001L114.696,15.192001L114.516,15.696001L123.84,15.696001L123.336,19.296001L119.592,21.312L120.24,21.708L123.372,21.708L123.012,24.084L117.18,24.084ZM121.608,31.608L108.036,30.924L108.396,28.188L122.004,28.872L121.608,31.608ZM120.996,28.188L109.584,27.504002L109.98,24.768002L121.392,25.452L120.996,28.188ZM114.516,18.108002L116.496,19.368L118.764,18.108002L114.516,18.108002Z" fill="#FFFFFF" fill-opacity="1"/></g></svg>