<svg xmlns="http://www.w3.org/2000/svg" xmlns:xlink="http://www.w3.org/1999/xlink" fill="none" version="1.1" width="100" height="100" viewBox="0 0 100 100"><defs><clipPath id="master_svg0_10_2447"><rect x="0" y="0" width="100" height="100" rx="0"/></clipPath></defs><g clip-path="url(#master_svg0_10_2447)"><g><path d="M66.4441034609375,36.93182485829605C67.75520346093751,36.93233214446875,68.79402546093749,38.03912223046875,68.7114224609375,39.34773253046875L66.9696694609375,66.85468673046876C66.9687154609375,66.86974873046876,66.9678384609375,66.88438073046875,66.9669034609375,66.89944673046875C66.7441864609375,70.49295073046875,63.7643734609375,73.29566173046875,60.1614184609375,73.29546373046875L40.2955112609375,73.29546373046875C36.6925568609375,73.29566573046876,33.7127437609375,70.49295073046875,33.4900317609375,66.89944473046876C33.4890820609375,66.88412073046875,33.4882079609375,66.86961973046874,33.4872363609375,66.85429573046875L31.7432389259375,39.34773253046875C31.6641885859375,38.09520233046875,32.6153418409375,37.01571589746875,33.8677985609375,36.93639678876875C33.8682587609375,36.93636765286875,33.8684687609375,36.93635456916875,33.8689288609375,36.93632581406875C33.9169423609375,36.93332515796875,33.9650378609375,36.93182373046875,34.0131447609375,36.93182373046875L66.4398274609375,36.93182373046875C66.44058646093751,36.93182373046875,66.44134146093751,36.93182388941625,66.4421004609375,36.93182420730591C66.4428594609375,36.93182452519557,66.44334446093751,36.93182456507191,66.4441034609375,36.93182485829605M63.3551904609375,41.47727873046875L37.1497468609375,41.47727873046875C37.1423787609375,41.47727873046875,37.1355271609375,41.47724013046875,37.1281585609375,41.47733493046875C36.7422461609375,41.48230073046875,36.4373240609375,41.80687423046875,36.4561552609375,42.19209863046875C36.4565725609375,42.20062353046875,36.4571494609375,42.20880843046875,36.4576969609375,42.21732613046875L38.0233073609375,66.58412573046874C38.0244746609375,66.60228573046875,38.0254826609375,66.61956373046876,38.0267586609375,66.63771673046875C38.1003847609375,67.68512573046876,38.881242760937496,68.54104073046875,39.907055860937504,68.71762473046874C39.9948463609375,68.73273273046875,40.083198560937504,68.73875473046874,40.1721525609375,68.74352073046875C40.2528638609375,68.74784473046876,40.3336753609375,68.75000773046875,40.4145021609375,68.75000773046875L60.1589774609375,68.75000773046875C60.1606044609375,68.75000773046875,60.1619814609375,68.75000773046875,60.163608460937496,68.75000773046875C61.2257004609375,68.74958773046875,62.1396124609375,68.01491773046875,62.376617460937496,66.99105673046876C62.3959994609375,66.90732573046876,62.407329460937504,66.82093573046875,62.4173264609375,66.73557673046875C62.4270224609375,66.65278473046875,62.4345394609375,66.56974973046874,62.439868460937504,66.48656273046875L63.9953614609375,42.20460223046875C63.9954604609375,42.20305013046875,63.9955444609375,42.20178363046875,63.9956364609375,42.20023103046875C64.0177874609375,41.82639073046875,63.734163460937495,41.50455573046875,63.3603994609375,41.47963003046875C63.3594154609375,41.47956373046875,63.3587604609375,41.47916363046875,63.358062460937504,41.47846703046875C63.3572994609375,41.47770593046875,63.3562674609375,41.47727873046875,63.3551904609375,41.47727873046875M45.6818754609375,46.02273373046875C46.937068460937496,46.02273373046875,47.9546034609375,47.04026773046875,47.954601460937496,48.29546173046875L47.954601460937496,61.93182373046875C47.9546034609375,63.18701973046875,46.937068460937496,64.20455173046875,45.6818754609375,64.20455173046875C44.4266834609375,64.20455173046875,43.4091484609375,63.18701973046875,43.4091484609375,61.93182373046875L43.4091484609375,48.29545973046875C43.4091484609375,47.04026773046875,44.4266834609375,46.02273373046875,45.6818754609375,46.02273373046875ZM54.7727854609375,46.02273373046875C56.027978460937504,46.02273373046875,57.0455134609375,47.04026773046875,57.0455134609375,48.29546173046875L57.0455134609375,61.92694073046875C57.0455134609375,61.93019673046875,57.0455134609375,61.93319673046875,57.045503460937496,61.93645273046875C57.0417844609375,63.18864773046875,56.0255714609375,64.20233173046876,54.7727894609375,64.20233173046876C53.520006460937495,64.20233173046876,52.5037894609375,63.18864773046875,52.5000704609375,61.93645273046875C52.5000594609375,61.93319673046875,52.5000614609375,61.93019673046875,52.5000614609375,61.92694073046875L52.5000614609375,48.29545973046875C52.5000614609375,47.04026773046875,53.5175954609375,46.02273373046875,54.7727854609375,46.02273373046875Z" fill="#6472A4" fill-opacity="1" style="mix-blend-mode:passthrough"/></g><g transform="matrix(0.9612618088722229,-0.2756374180316925,0.2756374180316925,0.9612618088722229,-6.38265777610377,7.642982001436394)"><path d="M24,33.347143181640625C24,34.602336881640625,25.0175347,35.619871181640626,26.2727273,35.61987018164062L67.181816,35.61987018164062C68.43700799999999,35.619871181640626,69.454548,34.602336881640625,69.454548,33.347143181640625C69.454548,32.09195038164062,68.43701200000001,31.074415681640623,67.181816,31.074415681640623L52.181816,31.074415681640623C51.679739,31.074415681640623,51.272724,30.667401781640624,51.272724,30.165324681640627C51.272724,28.157017681640625,49.644672,26.528961181640625,47.636364,26.528961181640625L45.818182,26.528961181640625C43.809872,26.528961181640625,42.181818,28.157016681640624,42.181818,30.165324681640627C42.181818,30.667401781640624,41.774805,31.074415681640623,41.272728,31.074415681640623L26.2727273,31.074415681640623C25.0175344,31.074415681640623,24,32.09195038164062,24,33.347143181640625Z" fill="#6472A4" fill-opacity="1" style="mix-blend-mode:passthrough"/></g></g></svg>