<svg xmlns="http://www.w3.org/2000/svg" xmlns:xlink="http://www.w3.org/1999/xlink" fill="none" version="1.1" width="100" height="100" viewBox="0 0 100 100"><defs><clipPath id="master_svg0_1_174"><rect x="0" y="0" width="100" height="100" rx="0"/></clipPath></defs><g clip-path="url(#master_svg0_1_174)"><g><path d="M83.13780254101563,77.08734159375L67.65675354101563,61.18004959375C71.36036654101562,56.09857159375,73.55630454101563,49.78132659375,73.55630454101563,42.94071559375C73.55630454101563,26.12676859375,60.292999541015625,12.49755859375,43.93151454101562,12.49755859375C27.565460541015625,12.49755859375,14.302154541015625,26.12676859375,14.302154541015625,42.94071559375C14.302154541015625,59.75878859375,27.565538541015627,73.38410159375,43.931589541015626,73.38410159375C49.34457054101563,73.38410159375,54.41938054101563,71.89419159375001,58.786067541015626,69.28445859375L74.75369254101562,85.69998159375C77.07029754101563,88.07699559375,80.82540154101562,88.07699559375,83.13788654101562,85.69998159375C85.45486454101562,83.32288359375,85.45486454101562,79.46443159375,83.13780254101563,77.08734159375ZM43.93151454101562,65.26657859375C31.931850541015624,65.26657859375,22.201873741015625,55.27173659375,22.201873741015625,42.94071959375C22.201873741015625,30.61420259375,31.931852541015626,20.61478139375,43.93151454101562,20.61478139375C55.928783541015626,20.61478139375,65.65868354101562,30.61420259375,65.65868354101562,42.94071959375C65.65869154101563,55.27173659375,55.928783541015626,65.26657859375,43.93151454101562,65.26657859375Z" fill="#8992EB" fill-opacity="1" style="mix-blend-mode:passthrough"/><path d="M84.57009154101563,87.09597059375L84.57142654101563,87.09460459375Q86.87563354101563,84.72964459375,86.87561054101562,81.39364659375Q86.87558754101562,78.05666359375,84.56998454101563,75.69132659375L70.23809854101563,60.96483659375Q75.55630454101563,52.87348559375,75.55630454101563,42.94071559375Q75.55630454101563,29.51782259375,66.31280854101563,20.01908349375Q57.04714154101563,10.49756099375,43.93151854101562,10.49755859375Q30.812881541015624,10.49755859375,21.546298941015625,20.01900479375Q12.302154541015625,29.51739659375,12.302154541015625,42.94071559375Q12.302154541015625,56.36647759375,21.546397241015626,65.86414759375Q30.812330541015626,75.38410159375,43.931589541015626,75.38410159375Q51.677776541015625,75.38410159375,58.427303541015625,71.78400059375L73.32005654101562,87.09449759375Q75.64759854101563,89.48274259375,78.94733454101562,89.48274259375Q82.24716954101562,89.48274259375,84.57009154101563,87.09597059375ZM81.70561954101562,78.48335259375Q84.54241954101562,81.39364659375,81.70568054101562,84.30399359375L81.70434554101563,84.30535859375Q80.55892154101562,85.48274259375,78.94733454101562,85.48274259375Q77.33469354101562,85.48274259375,76.18732854101563,84.30546559375L59.11725654101563,66.75656559375L57.76004754101562,67.56769159375Q51.374313541015624,71.38410159375,43.931589541015626,71.38410159375Q32.50095554101563,71.38410159375,24.412808541015625,63.07422259375Q16.302154541015625,54.74121859375,16.302154541015625,42.94071559375Q16.302154541015625,31.14255559375,24.412830541015623,22.80880759375Q32.501609541015625,14.49755859375,43.93151854101562,14.49755859375Q55.35828354101562,14.497559593750001,63.44612454101563,22.80873259375Q71.55630454101563,31.14286059375,71.55630454101563,42.94071559375Q71.55630454101563,52.43416959375,66.04049254101562,60.00204459375L65.04661554101563,61.36567659375L81.70561954101562,78.48335259375ZM60.727310541015626,60.12271459375Q67.65869154101563,53.00104159375,67.65868354101562,42.94071759375Q67.65868354101562,32.88306759375,60.727409541015625,25.76047459375Q53.773654541015624,18.61478139375,43.93151454101562,18.61477659375Q34.087806541015624,18.61477799375,27.133544541015624,25.76041459375Q20.201873741015625,32.88283959375,20.201873741015625,42.94071959375Q20.201874241015624,53.00127459375,27.133644541015627,60.12277259375Q34.087125541015624,67.26657859375,43.93151454101562,67.26657859375Q53.77433354101562,67.26657859375,60.727310541015626,60.12271459375ZM57.86074054101562,28.55013859375Q63.65868354101563,34.50811759375,63.65868354101563,42.94071959375Q63.658687541015624,51.37582759375,57.86084754101562,57.33284359375Q52.08566654101563,63.26657859375,43.93151454101562,63.26657859375Q35.77570154101562,63.26657859375,29.999996541015626,57.33278659375Q24.201873741015625,51.37596159375,24.201873741015625,42.94071959375Q24.201873741015625,34.50798259375,30.000097541015627,28.55019559375Q35.776550541015624,22.61477859375,43.93151454101562,22.61477659375Q52.08481254101562,22.61478159375,57.86074054101562,28.55013859375Z" fill-rule="evenodd" fill="#8992EB" fill-opacity="1"/></g></g></svg>