<svg xmlns="http://www.w3.org/2000/svg" xmlns:xlink="http://www.w3.org/1999/xlink" fill="none" version="1.1" width="100" height="100" viewBox="0 0 100 100"><defs><clipPath id="master_svg0_10_147"><rect x="0" y="0" width="100" height="100" rx="0"/></clipPath></defs><g clip-path="url(#master_svg0_10_147)"><g><path d="M30.4366567,70.527706C31.0898705,70.79343,31.7430835,70.908333,32.3962951,70.908333C33.7226038,70.908333,35.0489111,70.361523,36.0857553,69.39196C36.1210146,69.35899,36.1559582,69.324593,36.1900921,69.290459C37.466934,68.013615,39.198705000000004,67.296295,41.004434,67.296295L57.027775,67.296295C66.384254,67.296295,74,59.680552,74,50.324072C74,38.5740738,64.425926,29,52.675923999999995,29L48.324072,29C36.5740757,29,27,38.5740738,27,50.324072L27,65.555557C27,67.684563,28.208198799999998,69.56359900000001,30.176194,70.418148C30.2625241,70.455635,30.3494766,70.492241,30.4366567,70.527706ZM30.4814816,50.280556000000004C30.4814816,40.445373000000004,38.488889,32.4379661,48.324072,32.4379661L52.675922,32.4379649C62.511108,32.4379649,70.518513,40.445372,70.518513,50.280556000000004C70.518513,57.722225,64.469437,63.771297,57.027771,63.771297L37.444443,63.771297C37.009258,63.771297,36.5740738,63.945374,36.2259254,64.293518L33.6583304,66.861111C32.8314815,67.68796499999999,31.874073,67.383335,31.6129627,67.25277700000001C31.3518505,67.12222299999999,30.4814816,66.68703500000001,30.4814816,65.512035L30.4814816,50.280556000000004ZM50.848143,53.198561C52.651427999999996,53.198561,54.113277,51.736259000000004,54.113277,49.932418999999996C54.113277,48.128575999999995,52.651427999999996,46.666275,50.848143,46.666275C49.044859,46.666275,47.58301,48.128575999999995,47.58301,49.932418999999996C47.58301,51.736259000000004,49.044859,53.198561,50.848143,53.198561ZM39.968518,53.196264C41.771113,53.196264,43.232406999999995,51.734970000000004,43.232406999999995,49.932375C43.232406999999995,48.12978,41.771113,46.668486,39.968518,46.668486C38.165922,46.668486,36.7046289,48.12978,36.7046289,49.932375C36.7046289,51.734970000000004,38.165922,53.196264,39.968518,53.196264ZM61.727779,53.196264C63.530373,53.196264,64.991661,51.734970000000004,64.991661,49.932375C64.991661,48.12978,63.530373,46.668486,61.727779,46.668486C59.925179,46.668486,58.463888,48.12978,58.463888,49.932375C58.463888,51.734970000000004,59.925179,53.196264,61.727779,53.196264Z" fill-rule="evenodd" fill="#6472A4" fill-opacity="1" style="mix-blend-mode:passthrough"/><path d="M32.3962951,71.756943Q34.7991104,71.756943,36.6653662,70.011795Q36.7195101,69.96115900000001,36.790150600000004,69.890514Q38.535766,68.144905,41.004434,68.144905L57.027775,68.144905Q64.396641,68.144905,69.622627,62.918922Q74.84861000000001,57.69294,74.84861000000001,50.324072Q74.84861000000001,41.160068,68.344273,34.6557274Q61.839931,28.15138894,52.675923999999995,28.15138894L48.324072,28.15138894Q39.160068,28.15138894,32.6557283,34.6557274Q26.15138894,41.160066,26.15138894,50.324072L26.15138894,65.555557Q26.15138894,69.595642,29.838196,71.196541Q29.978497,71.257465,30.1168928,71.313766Q31.206337,71.756943,32.3962951,71.756943ZM35.5900345,68.690399Q35.5394697,68.740967,35.5061407,68.772133Q34.129200499999996,70.05972299999999,32.3962951,70.05972299999999Q31.5383277,70.05972299999999,30.7564185,69.74164999999999Q30.636477499999998,69.692852,30.5141919,69.63975500000001Q27.84861076,68.48229599999999,27.84861106,65.555557L27.84861106,50.324072Q27.84861106,41.863078,33.8558459,35.855845Q39.86308,29.84861106,48.324072,29.84861106L52.675923999999995,29.84861106Q61.136917,29.84861106,67.144154,35.855845Q73.15138999999999,41.86308,73.15138999999999,50.324072Q73.15138999999999,56.989925,68.422508,61.718803Q63.693626,66.447681,57.027775,66.447681L41.004434,66.447681Q37.832752,66.447681,35.5900345,68.690399ZM65.885471,37.0710068Q60.403816,31.5893528,52.675919,31.5893519L48.324072,31.589355Q40.596177,31.589355,35.1145248,37.0710087Q29.6328704,42.552663,29.6328704,50.280556000000004L29.6328704,65.512035Q29.6328704,67.211517,31.2334571,68.011799Q32.8829832,68.836586,34.2583899,67.46117000000001L36.825983,64.89357799999999Q37.099655,64.619907,37.444443,64.619907L57.027771,64.619907Q62.960529,64.619907,67.163826,60.416611Q71.36712299999999,56.213312,71.36712299999999,50.280547999999996Q71.36712299999999,42.55266,65.885471,37.0710068ZM48.324072,33.286577199999996L52.675922,33.2865758Q59.700802,33.2865748,64.685352,38.2711239Q69.669903,43.255673,69.669903,50.280547999999996Q69.669903,55.510298,65.963707,59.216492Q62.257515,62.922688,57.027771,62.922688L37.444443,62.922688Q36.3966503,62.922688,35.6258659,63.693459L33.0582705,66.26105100000001Q32.5478663,66.771458,31.9924679,66.493755Q31.330092399999998,66.162571,31.330092399999998,65.512035L31.330092399999998,50.280556000000004Q31.330092399999998,43.255674,36.314641,38.2711258Q41.299189999999996,33.286577199999996,48.324072,33.286577199999996ZM53.757093,47.02294Q52.552191,45.817662999999996,50.848143,45.817662999999996Q49.144098,45.817665000000005,47.939194,47.022942Q46.734398,48.228107,46.734398,49.932418999999996Q46.734398,51.63673,47.939194,52.841898Q49.144096000000005,54.047171,50.848143,54.047171Q52.552191,54.047171,53.757093,52.841898Q54.961889,51.63673,54.961889,49.932418999999996Q54.961889,48.228107,53.757093,47.02294ZM42.876495,47.024399Q41.671972,45.819874,39.968518,45.819874Q38.265067,45.819874,37.060542999999996,47.024399Q35.8560181,48.228924,35.8560181,49.932375Q35.8560181,51.635828000000004,37.060542999999996,52.840351Q38.265066,54.044874,39.968518,54.044874Q41.671971,54.044874,42.876494,52.840351Q44.081018,51.635828000000004,44.081018,49.932375Q44.081018,48.228922,42.876495,47.024399ZM64.63575,47.024401Q63.431229,45.819874,61.727779,45.819874Q60.024323,45.819874,58.819798,47.024399Q57.615276,48.228922,57.615276,49.932375Q57.615276,51.63583,58.819798,52.840351Q60.024323,54.044874,61.727779,54.044874Q63.431229,54.044874,64.63575,52.840349Q65.840271,51.635824,65.840271,49.932375Q65.840271,48.228926,64.63575,47.024401ZM49.139498,48.222874000000004Q49.847265,47.514887,50.848143,47.514889Q51.849022000000005,47.514887,52.556788999999995,48.222871999999995Q53.264668,48.930966999999995,53.264668,49.932418999999996Q53.264668,50.933868000000004,52.556788999999995,51.641964Q51.849022000000005,52.349948999999995,50.848143,52.349948999999995Q49.847265,52.349948999999995,49.139498,51.641964Q48.431619999999995,50.933868000000004,48.431619999999995,49.932418999999996Q48.431619999999995,48.930969000000005,49.139498,48.222874000000004ZM38.260659000000004,48.224516Q38.968079,47.517097,39.968518,47.517097Q40.968957,47.517097,41.676377,48.224516Q42.383796000000004,48.931936,42.383796000000004,49.932375Q42.383796000000004,50.932816,41.676378,51.640234Q40.968959,52.347652,39.968518,52.347652Q38.968079,52.347652,38.260659000000004,51.640234Q37.553241,50.932816,37.553241,49.932375Q37.553241,48.931936,38.260659000000004,48.224516ZM60.019917,48.224516Q60.727337,47.517097,61.727779,47.517097Q62.728214,47.517097,63.435631,48.224514Q64.143047,48.931934,64.143047,49.932375Q64.143047,50.932816,63.435631,51.640236Q62.728214,52.347652,61.727779,52.347652Q60.727337,52.347652,60.019917,51.640234Q59.3125,50.932816,59.3125,49.932375Q59.3125,48.931934,60.019917,48.224516Z" fill-rule="evenodd" fill="#6472A4" fill-opacity="1"/></g></g></svg>