<svg xmlns="http://www.w3.org/2000/svg" xmlns:xlink="http://www.w3.org/1999/xlink" fill="none" version="1.1" width="100" height="93.2604751586914" viewBox="0 0 100 93.2604751586914"><defs><clipPath id="master_svg0_10_2103"><rect x="0" y="0" width="100" height="93.2604751586914" rx="0"/></clipPath></defs><g clip-path="url(#master_svg0_10_2103)"><g><path d="M52.886953,37.934934999999996C52.897728,37.831085,52.903255,37.725597,52.903255,37.618768C52.903255,36.009828999999996,51.649406,34.705526,50.102699,34.705526C48.555994,34.705526,47.302141,36.009828999999996,47.302141,37.618768C47.302141,37.62208,47.302147000000005,37.625389999999996,47.302156,37.628703L47.293461,37.628703L47.924591,51.515181999999996C47.924521999999996,51.522639999999996,47.924488,51.530106,47.924488,51.53758C47.924488,52.788977,48.899705999999995,53.803432,50.102699,53.803432C51.305695,53.803432,52.280912,52.788977,52.280912,51.53758C52.280912,51.516954,52.280647,51.496389,52.280119,51.475891000000004L52.886953,37.934934999999996ZM43.253113,28.2061443C46.977909,21.5908597,53.02499,21.6050483,56.7418,28.2061443L73.389114,57.771969C77.113911,64.387253,74.16172,69.75,66.775848,69.75L33.219064700000004,69.75C25.84186029,69.75,22.8889887,64.373062,26.6057981,57.771969L43.253113,28.2061443ZM50.102699,63.190536C51.649406,63.190536,52.903255,61.886238,52.903255,60.277298C52.903255,58.668362,51.649406,57.364059,50.102699,57.364059C48.555994,57.364059,47.302141,58.668362,47.302141,60.277298C47.302141,61.886238,48.555994,63.190536,50.102699,63.190536Z" fill="#E17362" fill-opacity="1" style="mix-blend-mode:passthrough"/></g></g></svg>