<svg xmlns="http://www.w3.org/2000/svg" xmlns:xlink="http://www.w3.org/1999/xlink" fill="none" version="1.1" width="100" height="100" viewBox="0 0 100 100"><defs><clipPath id="master_svg0_11_232"><rect x="0" y="0" width="100" height="100" rx="0"/></clipPath></defs><g clip-path="url(#master_svg0_11_232)"><g><path d="M64.0625,25C64.925446,25,65.625,25.69955516,65.625,26.5625C65.625,27.4254448,64.925446,28.125,64.0625,28.125C62.336609,28.125,60.9375,29.524109799999998,60.9375,31.25L60.9375,65.625C60.9375,67.35089099999999,62.336609,68.75,64.0625,68.75C64.925446,68.75,65.625,69.449554,65.625,70.3125C65.625,71.175446,64.925446,71.875,64.0625,71.875L54.6875,71.875C53.824556,71.875,53.125,71.175446,53.125,70.3125C53.125,69.449554,53.824556,68.75,54.6875,68.75C56.413388999999995,68.75,57.8125,67.35089099999999,57.8125,65.625L57.8125,31.25C57.8125,29.524109799999998,56.413388999999995,28.125,54.6875,28.125C53.824556,28.125,53.125,27.4254448,53.125,26.5625C53.125,25.69955516,53.824556,25,54.6875,25L64.0625,25ZM53.125,34.8187475C53.125,34.8221998,53.127462,34.824995,53.130915,34.8250055C53.991564,34.8276024,54.68858,35.526106999999996,54.68858,36.387499C54.68858,37.249803,53.990089,37.948873,53.128187,37.949998C53.125883,37.95,53.123850000000004,37.949999,53.121548000000004,37.949999L48.508089,37.949999C48.461051999999995,37.949999,48.41404,37.947914,48.367188,37.943749C48.320335,37.939585,48.273323000000005,37.9375,48.226286,37.9375L34.3767271,37.9375C34.375576,37.9375,34.3746777,37.937499,34.3735266,37.937499C31.1740026,37.937229,28.5033619,40.350207,28.1599233,43.508823C28.1448798,43.647175000000004,28.1383059,43.788317,28.1336696,43.927408L28.1305509,44.020971C28.1268506,44.131983000000005,28.125,44.243048,28.125,44.35412L28.125,53.560773999999995C28.125,53.561926,28.1249998,53.56282,28.1249998,53.563972C28.1247282,56.763496,30.5377064,59.434135,33.6963234,59.777576C33.8346806,59.792618,33.9758205,59.799194,34.1149158,59.803829L34.2084723,59.80695C34.3194828,59.81065,34.4305477,59.8125,34.5416203,59.8125L53.125,59.8125C53.987944,59.8125,54.6875,60.512054,54.6875,61.375C54.6875,62.237946,53.987944,62.9375,53.125,62.9375L34.375,62.9375C29.4607859,62.937775,25.38966516,59.145794,25.025589004,54.261997C25.018081283,54.161287,25.014190841,54.062016,25.011322973,53.961067L25.0040329043,53.704458C25.0013444531,53.609825,25.00000001497858,53.515156000000005,25.00000001497858,53.420485L25.00000001497858,44.1875C24.9997248131,39.27329,28.791703,35.202168,33.6755009,34.838089C33.7762184,34.830581699999996,33.8754864,34.8266907,33.9764414,34.823823000000004L34.2330427,34.8165331C34.3276758,34.813844700000004,34.4223433,34.8125,34.5170145,34.8125L53.118753,34.8125C53.122202,34.8125,53.125,34.8152971,53.125,34.8187475M65.79916399999999,34.8140802C70.635082,34.9021568,74.61464699999999,38.662018,74.974411,43.488001C74.98191800000001,43.588717,74.985809,43.687985999999995,74.988678,43.78894L74.995968,44.045542C74.99865700000001,44.140175,75,44.234843999999995,75,44.329515L75,53.5625C75.000275,58.476715,71.208298,62.547836,66.324501,62.911911C66.223782,62.919418,66.12451899999999,62.923309,66.023563,62.926178L65.737331,62.934307C65.66244499999999,62.936436,65.586681,62.939049,65.51192499999999,62.934132C64.752033,62.884148,64.131264,62.288612,64.059917,61.519318C63.989487,60.759861,64.476524,60.06839,65.198792,59.869106C65.289677,59.844032,65.384525,59.833321,65.478432,59.824974C65.57193000000001,59.816662,65.66494800000001,59.813084,65.758793,59.811138C68.89896,59.74601,71.501274,57.356518,71.84006099999999,54.241327C71.855106,54.102976,71.861694,53.961681,71.86632900000001,53.822590000000005L71.86945,53.729029C71.87315000000001,53.618016999999995,71.875,53.506952,71.875,53.39588L71.875,44.189226000000005C71.875,44.188074,71.875,44.187178,71.875,44.186026C71.875275,40.942043,69.394768,38.241744,66.171577,37.959459C66.12037699999999,37.954975,66.06805800000001,37.952269,66.016689,37.950557C65.756294,37.941876,65.496696,37.977022,65.236797,37.958735000000004C64.496571,37.906651,63.869762,37.328151,63.793217,36.553334C63.708012,35.690883,64.339008,34.9335604,65.184452,34.8457088C65.273026,34.836504,65.363163,34.8338737,65.45192,34.8266287C65.567257,34.817213100000004,65.68346,34.8119717,65.79916399999999,34.8140793M35.71875,46.53125C37.013166999999996,46.53125,38.0625,47.580582,38.0625,48.875C38.0625,50.169416,37.013166999999996,51.21875,35.71875,51.21875C34.4243326,51.21875,33.375,50.169416,33.375,48.875C33.375,47.580582,34.4243326,46.53125,35.71875,46.53125ZM52.5625,47.3125C53.425444,47.3125,54.125,48.012054,54.125,48.875C54.125,49.737944,53.425444,50.4375,52.5625,50.4375L43.1875,50.4375C42.324554,50.4375,41.625,49.737944,41.625,48.875C41.625,48.012054,42.324554,47.3125,43.1875,47.3125L52.5625,47.3125Z" fill="#6472A4" fill-opacity="1" style="mix-blend-mode:passthrough"/><path d="M64.0625,24L54.6875,24Q53.62608,24,52.87554,24.75053866Q52.125,25.50107735,52.125,26.5625Q52.125,29.125,54.6875,29.125Q56.8125,29.125,56.8125,31.25L56.8125,65.625Q56.8125,67.75,54.6875,67.75Q52.125,67.75,52.125,70.3125Q52.125,72.875,54.6875,72.875L64.0625,72.875Q66.625,72.875,66.625,70.3125Q66.625,67.75,64.0625,67.75Q61.9375,67.75,61.9375,65.625L61.9375,31.25Q61.9375,29.125,64.0625,29.125Q66.625,29.125,66.625,26.5625Q66.625,24,64.0625,24ZM54.125,26.5625Q54.125,26.0000002,54.6875,26.0000002L64.0625,26Q64.625,26,64.625,26.5625Q64.625,27.125,64.0625,27.125Q62.353867,27.125,61.145683,28.3331847Q59.9375,29.5413685,59.9375,31.25L59.9375,65.625Q59.9375,67.33363299999999,61.145683,68.54181700000001Q62.35387,69.75,64.0625,69.75Q64.625,69.75,64.625,70.3125Q64.625,70.875,64.0625,70.875L54.6875,70.875Q54.125,70.875,54.125,70.3125Q54.125,69.75,54.6875,69.75Q56.396132,69.75,57.604317,68.54181700000001Q58.8125,67.33363299999999,58.8125,65.625L58.8125,31.25Q58.8125,29.5413675,57.604317,28.333184199999998Q56.396133,27.125,54.6875,27.1249998Q54.40625,27.125,54.265625,26.984375Q54.125,26.84375,54.125,26.5625ZM53.118755,33.8125L34.5170155,33.8125Q34.3607912,33.8125,34.2046452,33.8169365L33.9480515,33.8242264Q33.7480526,33.829907399999996,33.6011581,33.8408566Q29.5443707,34.1432838,26.7735806,37.125881Q23.9997717,40.111731,24,44.1875L24,53.420485Q24,53.576704,24.00443614,53.732855L24.01172626,53.989464Q24.01740873,54.189488999999995,24.02835423,54.33634Q24.33078003,58.393127,27.3133783,61.163918Q30.2992268,63.937729,34.375,63.9375L53.125,63.9375Q55.6875,63.9375,55.6875,61.375Q55.6875,58.8125,53.125,58.8125L34.5416203,58.8125Q34.3917122,58.8125,34.241834600000004,58.80751L34.1482105,58.804382Q33.9303246,58.797127,33.804416700000004,58.78344Q31.811995500000002,58.566799,30.4698515,57.073376Q29.124829300000002,55.576750000000004,29.125,53.563972L29.125,44.354122000000004Q29.125,44.204170000000005,29.129996300000002,44.054283L29.1331148,43.960724Q29.1403799,43.742765,29.1540642,43.616917Q29.3707013,41.624498,30.8641243,40.282352Q32.3607502,38.93733,34.3735266,38.937499L34.3741293,38.937499L34.3767271,38.9375L48.226286,38.9375Q48.252516,38.9375,48.278654,38.939823000000004Q48.393147,38.95,48.508091,38.95L53.124967999999996,38.95L53.129492,38.949996999999996Q55.68858,38.946655,55.68858,36.3875Q55.68858,33.958237600000004,53.378896999999995,33.8319168Q53.258534999999995,33.8125,53.118755,33.8125ZM65.817379,33.8142452Q65.609299,33.8104553,65.37056,33.8299446Q65.344719,33.8320541,65.28171900000001,33.8358183Q65.15486899999999,33.8433981,65.08109999999999,33.8510647Q62.547394,34.1143484,62.798065,36.651645Q63.01075,38.804579000000004,65.166607,38.956268Q65.365688,38.970278,65.707516,38.955719Q65.90395000000001,38.947353,65.983391,38.950003Q66.042305,38.951965,66.08433500000001,38.955647Q68.11585600000001,39.133566,69.49497199999999,40.637875Q70.875175,42.143372,70.875,44.186026L70.875,53.39588Q70.875,53.54579,70.870007,53.695668999999995L70.866882,53.789297000000005Q70.859627,54.007238,70.845924,54.133213Q70.632431,56.096266,69.174252,57.432823Q67.715012,58.770351,65.738045,58.811356Q65.54132100000001,58.815437,65.3899,58.828903Q65.123192,58.852608,64.932816,58.905128Q62.866077,59.475372,63.06419,61.611668Q63.266083,63.788567,65.446308,63.93198Q65.563934,63.939716,65.753258,63.934261L65.765717,63.933907L66.05197100000001,63.925774Q66.251972,63.92009,66.398842,63.909145Q70.455624,63.60672,73.226418,60.624123Q76.00022899999999,57.638268,76,53.5625L76,44.329516999999996Q76,44.173114999999996,75.995567,44.017151L75.988277,43.760536Q75.982597,43.56057,75.971645,43.41366Q75.673058,39.408291,72.752254,36.647583Q69.83197,33.887364399999996,65.817379,33.8142452ZM34.261440300000004,35.816131Q34.3892174,35.8125,34.5170155,35.8125L52.921602,35.8125Q53.018768,35.824659,53.127785,35.825001Q53.68858,35.826693,53.68858,36.3875Q53.68858,36.949266,53.126883,36.95L48.508091,36.95Q48.481860999999995,36.95,48.455723,36.947677Q48.341229999999996,36.9375,48.226286,36.9375L34.3767271,36.9375L34.3754377,36.937499L34.3735266,36.937499Q31.5941725,36.937265,29.5272608,38.794806Q27.4650786,40.648097,27.1657829,43.400729999999996Q27.1439893,43.601156,27.1342247,43.894093999999996L27.1311061,43.987659Q27.125,44.170849000000004,27.125,44.354122000000004L27.125,53.560773999999995L27.1249998,53.562572L27.1249998,53.563972Q27.124764,56.343327,28.9823046,58.41024Q30.8355942,60.47242,33.5882282,60.771721Q33.7887726,60.793518,34.081622100000004,60.803276L34.1751099,60.806396Q34.3584175,60.8125,34.5416203,60.8125L53.125,60.8125Q53.6875,60.8125,53.6875,61.375Q53.6875,61.9375,53.125,61.9375L34.375,61.9375Q31.0848188,61.937683,28.6746068,59.698631Q26.2669095,57.461914,26.02282,54.187658Q26.0152954,54.086697,26.0109197,53.932671L26.0036297,53.676062Q26,53.548298,26,53.420485L26,44.1875Q25.99981582,40.89732,28.2388654,38.48711Q30.4755802,36.079413,33.7498426,35.835322Q33.8508224,35.827795,34.0048332,35.823420999999996L34.261440300000004,35.816131ZM65.401016,35.832256Q65.48577900000001,35.827192,65.533283,35.823313999999996Q65.6726,35.811941,65.780952,35.813914Q69.021084,35.872928,71.378433,38.101069Q73.736187,40.329589,73.97718,43.562343999999996Q73.984703,43.663273000000004,73.989082,43.817345L73.99636799999999,44.073936Q74,44.201691,74,44.329516999999996L74,53.5625Q74.00018299999999,56.852683999999996,71.761135,59.262894Q69.524422,61.670593,66.25016,61.91468Q66.14917,61.922207,65.99516299999999,61.926582L65.708946,61.934708L65.695667,61.935089Q65.60086100000001,61.93782,65.577545,61.936287Q65.09996799999999,61.904877,65.055645,61.426971Q65.01214999999999,60.95797,65.464767,60.833084Q65.480568,60.828728,65.566967,60.821049Q65.65081,60.813595,65.779549,60.810921Q68.510468,60.75428,70.525642,58.907188Q72.539253,57.061531,72.834206,54.349445Q72.856014,54.14888,72.865776,53.855886L72.868896,53.762389999999996Q72.875,53.579079,72.875,53.39588L72.875,44.186026Q72.87523999999999,41.365404,70.96920399999999,39.286338Q69.06476599999999,37.209015,66.258827,36.963274Q66.162926,36.954874000000004,66.049988,36.951111Q65.89468,36.945934,65.622417,36.95753Q65.393406,36.967283,65.30698799999999,36.961203Q64.835098,36.927999,64.788376,36.455025Q64.733341,35.897968,65.287811,35.840353Q65.317978,35.837218,65.401016,35.832256ZM33.3543625,46.510611Q32.375,47.489973,32.375,48.875Q32.375,50.260025,33.3543625,51.239388000000005Q34.333724000000004,52.21875,35.71875,52.21875Q37.103775,52.21875,38.083138,51.239388000000005Q39.0625,50.260025,39.0625,48.875Q39.0625,47.489973,38.083138,46.510611Q37.103778,45.53125,35.71875,45.53125Q34.3337231,45.53125,33.3543625,46.510611ZM52.5625,46.3125L43.1875,46.3125Q40.625,46.3125,40.625,48.875Q40.625,51.4375,43.1875,51.4375L52.5625,51.4375Q55.125,51.4375,55.125,48.875Q55.125,46.3125,52.5625,46.3125ZM35.71875,50.21875Q34.375,50.21875,34.375,48.875Q34.375,47.53125,35.71875,47.53125Q37.0625,47.53125,37.0625,48.875Q37.0625,50.21875,35.71875,50.21875ZM42.625,48.875Q42.625,48.3125,43.1875,48.3125L52.5625,48.3125Q53.125,48.3125,53.125,48.875Q53.125,49.4375,52.5625,49.4375L43.1875,49.4375Q42.625,49.4375,42.625,48.875Z" fill-rule="evenodd" fill="#6472A4" fill-opacity="1"/></g></g></svg>