<svg xmlns="http://www.w3.org/2000/svg" xmlns:xlink="http://www.w3.org/1999/xlink" fill="none" version="1.1" width="20.86978530883789" height="26.110462188720703" viewBox="0 0 20.86978530883789 26.110462188720703"><path d="M20.445761,5.7870812C20.28755,4.0411291,18.935184,2.6407804,17.195801,2.4218147C16.519226,2.4218147,15.841459,2.2876759,15.164879,2.2876759L14.488301,1.0768849C14.039557,0.39477935,13.27377,-0.011184677,12.457376,0.00023491659L8.5308332,0.00023491659C7.7223792,0.020389559,6.9703236,0.41907352,6.4999065,1.0768849L5.6880078,2.2876759C5.0114226,2.2876759,4.3336644,2.4218147,3.6570809,2.4218147C1.8958027,2.5962887,0.52011138,4.0207925,0.40712672,5.7870812C0.13531658,8.3451576,0,12.112843,0,14.805061C0,17.497271,0.27063349,20.453056,0.40594992,22.476929C0.5293873,24.214689,1.9174163,25.594168,3.6559043,25.706879C5.5515132,25.841013,8.3955154,26.110462,10.426444,26.110462C12.457376,26.110462,15.301373,25.841005,17.196983,25.706879C18.935841,25.593466,20.323509,24.212841,20.445761,22.474571C20.581085,20.455412,20.851706,17.360767,20.851706,14.802706C20.922174,11.791751,20.786545,8.7795124,20.445761,5.7870812ZM7.1776671,3.6337812L8.1190033,2.0193949C8.1190033,1.8852552,8.2543182,1.8852552,8.3896351,1.8852552L12.316171,1.8852552C12.451489,1.8852552,12.451489,1.8852552,12.586811,2.0193949L13.534019,3.6349578L13.534019,3.765569C13.66934,3.8997085,13.534019,4.1691651,13.534019,4.304482C13.534019,4.4397979,13.398706,4.4386215,13.263393,4.4386215L7.5824394,4.4386215C7.4471231,4.4386215,7.4471231,4.4386215,7.3118086,4.304482C7.2033734,4.0985217,7.1567907,3.8656058,7.1776671,3.6337812ZM6.3657656,11.978702L10.427622,11.978702C11.02911,11.964578,11.521523,12.453779,11.511332,13.055351C11.566418,13.674223,11.046115,14.191134,10.427622,14.132005L6.3634143,14.132005C5.7687988,14.132005,5.2867646,13.649965,5.2867646,13.055351C5.2867646,12.460739,5.7687988,11.978701,6.3634143,11.978701L6.3657656,11.978702ZM14.484767,19.515261L6.3657656,19.515261C5.7656674,19.525904,5.2753305,19.038767,5.2820592,18.438606C5.2269711,17.81974,5.7472715,17.302822,6.3657656,17.36195L14.484767,17.36195C15.079386,17.361956,15.561421,17.843987,15.561421,18.438606C15.561421,19.033215,15.079386,19.515261,14.484767,19.515261Z" fill="#FFFFFF" fill-opacity="0.800000011920929" style="mix-blend-mode:passthrough"/></svg>