<svg xmlns="http://www.w3.org/2000/svg" xmlns:xlink="http://www.w3.org/1999/xlink" fill="none" version="1.1" width="24.565670013427734" height="23.16411018371582" viewBox="0 0 24.565670013427734 23.16411018371582"><path d="M15.222027,23.16411L9.3470526,23.16411C7.053206,23.157925,4.9371529,21.927635,3.7969458,19.93725L0.85536391,14.805508C-0.28512117,12.807855,-0.28512117,10.356253,0.85536391,8.3585958L3.7969458,3.2268693C4.9377751,1.237085,7.0534329,0.0070269904,9.3470526,0L15.218623,0C17.512459,0.0061823465,19.628519,1.23647,20.768719,3.2268698L23.710312,8.3585958C24.850786,10.356256,24.850786,12.807859,23.710312,14.805508L20.768719,19.93725C19.62995,21.927418,17.514959,23.157845,15.222027,23.16411ZM12.284534,16.826403C15.157866,16.826403,17.496119,14.471764,17.496119,11.578647C17.496119,8.6855202,15.157871,6.3308854,12.284534,6.3308854C9.4112015,6.3308854,7.0729585,8.6855202,7.0729585,11.578647C7.0729585,14.471764,9.4112015,16.826403,12.284534,16.826403Z" fill="#FFFFFF" fill-opacity="0.800000011920929" style="mix-blend-mode:passthrough"/></svg>