<svg xmlns="http://www.w3.org/2000/svg" xmlns:xlink="http://www.w3.org/1999/xlink" fill="none" version="1.1" width="100" height="100" viewBox="0 0 100 100"><defs><clipPath id="master_svg0_1_259"><rect x="0" y="0" width="100" height="100" rx="0"/></clipPath></defs><g clip-path="url(#master_svg0_1_259)"><g transform="matrix(-1,0,0,1,181.175048828125,0)"><path d="M133.04220941406248,36.23748944335938L132.4422114140625,36.23748944335938L132.4422114140625,22.887490743359376C132.4422114140625,17.893740473359376,129.5797124140625,15.812490843359376,126.04846541406249,18.656240343359375L93.2297141140625,45.05624344335938C89.7047140640625,47.887493443359375,89.7047140640625,52.52499044335938,93.2422140140625,55.356243443359375L125.8109624140625,81.49374344335938C129.3422124140625,84.32499744335938,132.4484674140625,81.44998944335937,132.4484674140625,77.23749544335936L132.4484674140625,63.149997443359375L137.3797114140625,63.149997443359375C151.6234664140625,63.149997443359375,162.4922104140625,69.29999544335936,169.1422124140625,81.17499544335936C170.4484634140625,83.33124544335938,171.8234554140625,82.86249544335938,171.8234554140625,81.17499544335936C171.5359574140625,60.024997443359375,153.6234664140625,36.23749544335938,133.04220941406248,36.23748944335938Z" fill="#8992EB" fill-opacity="1" style="mix-blend-mode:passthrough"/></g></g></svg>