<svg xmlns="http://www.w3.org/2000/svg" xmlns:xlink="http://www.w3.org/1999/xlink" fill="none" version="1.1" width="100" height="100" viewBox="0 0 100 100"><defs><clipPath id="master_svg0_1_178"><rect x="0" y="0" width="100" height="100" rx="0"/></clipPath></defs><g clip-path="url(#master_svg0_1_178)"><g><path d="M20.833333,20.833334L37.5,20.833334L37.5,62.5L20.833333,62.5L20.833333,20.833334ZM16.666667,12.50000074505806C14.3654809,12.50000074505806,12.5,14.3654816,12.5,16.6666679L12.5,66.666668C12.5,68.967854,14.3654809,70.833336,16.666667,70.833336L41.666668,70.833336C43.967855,70.833336,45.833336,68.967854,45.833336,66.666668L45.833336,16.6666679C45.833336,14.3654816,43.967855,12.50000074505806,41.666668,12.50000074505806L16.666667,12.50000074505806ZM62.5,20.833334L79.166672,20.833334L79.166672,62.5L62.5,62.5L62.5,20.833334ZM58.333332,12.5C56.032146,12.49999925494194,54.166668,14.3654786,54.166664,16.666666499999998L54.166664,66.666664C54.166664,68.967854,56.032146,70.833336,58.333332,70.833332L83.333328,70.833332C85.634521,70.833336,87.5,68.967854,87.5,66.666664L87.5,16.6666679C87.5,14.3654816,85.634521,12.50000074505806,83.333328,12.50000074505806L58.333332,12.5ZM16.666667,79.166672C14.3654809,79.166672,12.5,81.03215,12.5,83.333336C12.5,85.634521,14.3654809,87.5,16.666667,87.5L83.333336,87.5C85.634521,87.5,87.5,85.634521,87.5,83.333336C87.5,81.03215,85.634521,79.166672,83.333336,79.166672L16.666667,79.166672Z" fill="#8992EB" fill-opacity="1" style="mix-blend-mode:passthrough"/><path d="M45.320053,13.01328254Q43.80677,11.50000072,41.666668,11.5L16.666667,11.50000072Q14.5265636,11.50000072,13.01328194,13.01328295Q11.50000024,14.5265651,11.5,16.6666689L11.5,66.666668Q11.5,68.80677399999999,13.01328206,70.320053Q14.5265627,71.833336,16.666667,71.833336L41.666668,71.833336Q43.806774000000004,71.833336,45.320053,70.320053Q46.833336,68.80677399999999,46.833336,66.666668L46.833336,16.6666679Q46.833336,14.5265651,45.320053,13.01328254ZM86.986725,13.01328254Q85.473442,11.50000072,83.333328,11.5L58.333336,11.5Q56.19323,11.4999993,54.679947,13.01328087Q53.166668,14.526561300000001,53.166668,16.666667L53.166664,66.666668Q53.166664,68.80677399999999,54.679947,70.320053Q56.19323,71.833336,58.333336,71.833336L83.333328,71.833336Q85.473442,71.833336,86.986725,70.320053Q88.5,68.80677399999999,88.5,66.666668L88.5,16.6666679Q88.5,14.5265625,86.986725,13.01328254ZM58.333336,13.5L83.333328,13.5000007Q84.645012,13.5000005,85.57251,14.4274963Q86.5,15.3549914,86.5,16.6666679L86.5,66.666668Q86.5,67.97834399999999,85.57251,68.905838Q84.645012,69.833336,83.333328,69.833336L58.333336,69.833336Q57.02166,69.833336,56.094162,68.905838Q55.166664,67.97834399999999,55.166664,66.666668L55.166668,16.666667Q55.166668,15.3549898,56.094162,14.4274944Q57.02166,13.49999964,58.333336,13.5ZM16.666667,13.5000007L41.666668,13.5000007Q42.978344,13.5000005,43.905838,14.4274963Q44.833336,15.354993799999999,44.833336,16.6666679L44.833336,66.666668Q44.833336,67.97834399999999,43.905838,68.905838Q42.978344,69.833336,41.666668,69.833336L16.666667,69.833336Q15.354991,69.833336,14.4274954,68.905838Q13.5,67.97834399999999,13.5,66.666668L13.5,16.6666689Q13.5000001,15.3549919,14.4274957,14.4274963Q15.3549907,13.5000007,16.666667,13.5000007ZM19.833333500000002,19.833334L19.833333500000002,63.5L38.5,63.5L38.5,19.833334L19.833333500000002,19.833334ZM61.5,19.833334L61.5,63.5L80.166672,63.5L80.166672,19.833334L61.5,19.833334ZM21.833334,61.5L21.833334,21.833334L36.5,21.833334L36.5,61.5L21.833334,61.5ZM63.5,61.5L78.166672,61.5L78.166672,21.833334L63.5,21.833334L63.5,61.5ZM86.986725,79.679955Q85.473442,78.166672,83.333336,78.166672L16.666667,78.166672Q14.5265646,78.166672,13.01328242,79.679955Q11.50000006,81.193237,11.5,83.333336Q11.5,85.473442,13.01328206,86.986725Q14.5265627,88.5,16.666667,88.5L83.333336,88.5Q85.473442,88.5,86.986725,86.986725Q88.5,85.473442,88.5,83.333336Q88.5,81.193237,86.986725,79.679955ZM16.666667,80.166672L83.333336,80.166672Q84.645012,80.166672,85.57251,81.09417Q86.5,82.021667,86.5,83.333336Q86.5,84.645012,85.57251,85.57251Q84.645012,86.5,83.333336,86.5L16.666667,86.5Q15.354991,86.5,14.4274954,85.57251Q13.5,84.645012,13.5,83.333336Q13.5,82.021667,14.427495,81.09417Q15.3549917,80.166672,16.666667,80.166672Z" fill-rule="evenodd" fill="#8992EB" fill-opacity="1"/></g></g></svg>